<svg xmlns="http://www.w3.org/2000/svg" width="116.974mm" height="26.586mm" viewBox="0 0 331.58 75.363">
  <g>
    <path d="M100.271,75.131H90.49a17.406,17.406,0,0,1-.995-5.043c-.122-1.947-.311-3.816-.555-5.6a8.861,8.861,0,0,0-2.119-5.1q-1.621-1.62-5.293-1.617H71.753V75.131H61.979V34.787l9.774,4.3v5.19a6.378,6.378,0,0,0,.5,1.282A7,7,0,0,0,74.4,48.085a9.272,9.272,0,0,0,3.144,1.428,14.809,14.809,0,0,0,3.73.471,19.387,19.387,0,0,0,2.8-.22,9.777,9.777,0,0,0,2.8-.843,6.078,6.078,0,0,0,2.179-1.709,4.316,4.316,0,0,0,.874-2.772,3.889,3.889,0,0,0-1.154-2.924,9,9,0,0,0-3.016-1.869,30.383,30.383,0,0,0-4.237-1.312q-2.362-.559-4.793-1.24a43.172,43.172,0,0,1-4.854-1.526,16.628,16.628,0,0,1-4.237-2.338,10.483,10.483,0,0,1-4.17-8.78,11.687,11.687,0,0,1,1.46-5.947,13.262,13.262,0,0,1,3.834-4.2,16.778,16.778,0,0,1,5.354-2.491,22.847,22.847,0,0,1,5.977-.806,28.287,28.287,0,0,1,6.692.775,16.775,16.775,0,0,1,5.7,2.522,12.834,12.834,0,0,1,3.956,4.451A13.719,13.719,0,0,1,97.9,25.324H88.439a7.907,7.907,0,0,0-.836-3.3A5.548,5.548,0,0,0,85.7,19.969a7.974,7.974,0,0,0-2.7-1.055,16.688,16.688,0,0,0-3.334-.312,11.027,11.027,0,0,0-2.362.251,6.223,6.223,0,0,0-2.149.866,5.457,5.457,0,0,0-1.588,1.557,4.184,4.184,0,0,0-.622,2.369,3.937,3.937,0,0,0,.5,2.113,4.364,4.364,0,0,0,1.96,1.5,24.686,24.686,0,0,0,4.048,1.374c1.721.452,3.968,1.038,6.752,1.74.831.165,1.985.47,3.456.9a16.406,16.406,0,0,1,4.39,2.088,13.179,13.179,0,0,1,3.767,3.828,10.907,10.907,0,0,1,1.587,6.13,13.567,13.567,0,0,1-1.185,5.665A12.305,12.305,0,0,1,94.7,53.5a12.687,12.687,0,0,1-1.606,1.117,6.888,6.888,0,0,1,1.82,1.124,8.415,8.415,0,0,1,1.935,2.423,11.433,11.433,0,0,1,1.087,3.084,27.735,27.735,0,0,1,.47,3.364q.055,1.053.122,2.491c.043.952.116,1.929.22,2.924a19.844,19.844,0,0,0,.494,2.833,6.588,6.588,0,0,0,1.032,2.271" fill="#231f20"/>
    <path d="M19.282,12.057a23.047,23.047,0,0,1,8.044,1.376,17.5,17.5,0,0,1,6.448,4.132,19.078,19.078,0,0,1,4.257,6.887,27.865,27.865,0,0,1,1.533,9.7,30.984,30.984,0,0,1-1.251,9.014,19.841,19.841,0,0,1-3.788,7.137A17.759,17.759,0,0,1,28.2,55.033a21.4,21.4,0,0,1-8.921,1.721H.036A.036.036,0,0,1,0,56.719V12.057Zm-.689,36.434a12.607,12.607,0,0,0,4.132-.689,9.091,9.091,0,0,0,3.568-2.285,11.478,11.478,0,0,0,2.5-4.163,18.307,18.307,0,0,0,.939-6.26,26.072,26.072,0,0,0-.657-6.1,12.174,12.174,0,0,0-2.16-4.664,9.592,9.592,0,0,0-3.975-2.973,15.868,15.868,0,0,0-6.1-1.033H9.829V48.491Z" fill="#231f20"/>
    <path d="M55.109,12.057v44.7H45.28v-44.7Z" fill="#231f20"/>
    <path d="M137.979,70.95q-5.071,4.413-14.023,4.413-9.078,0-14.055-4.382t-4.976-13.522V29.666h9.828V57.459a20.112,20.112,0,0,0,.314,3.568,6.938,6.938,0,0,0,4.1,5.29,11.328,11.328,0,0,0,4.789.845q5.259,0,7.261-2.347t2-7.356V29.664h9.828v27.8Q143.049,66.537,137.979,70.95Z" fill="#231f20"/>
    <path d="M169.442,29.664a18.638,18.638,0,0,1,7.137,1.22,13.364,13.364,0,0,1,4.789,3.224,12.417,12.417,0,0,1,2.692,4.57,17.078,17.078,0,0,1,0,10.611,12.353,12.353,0,0,1-2.692,4.6,13.351,13.351,0,0,1-4.789,3.224,18.618,18.618,0,0,1-7.137,1.221H159.113V74.362h-9.8a.025.025,0,0,1-.024-.025V29.664ZM166.751,50.7a20.587,20.587,0,0,0,3.255-.25,7.576,7.576,0,0,0,2.754-.971,5.3,5.3,0,0,0,1.91-2.034A7.163,7.163,0,0,0,175.39,44a7.161,7.161,0,0,0-.72-3.443,5.3,5.3,0,0,0-1.91-2.035,7.613,7.613,0,0,0-2.754-.971,20.706,20.706,0,0,0-3.255-.25h-7.638V50.7Z" fill="#231f20"/>
    <path d="M186.426,37.923V29.664h36.622v8.263h-13.4V74.362h-9.828V37.927H186.431Z" fill="#231f20"/>
    <path d="M239.118,29.664v44.7h-9.829v-44.7Z" fill="#231f20"/>
    <path d="M245.656,42.9a22.343,22.343,0,0,1,4.32-7.481,19.768,19.768,0,0,1,6.917-5.008,24.476,24.476,0,0,1,18.5,0,19.845,19.845,0,0,1,6.887,5.008A22.341,22.341,0,0,1,286.6,42.9a27.921,27.921,0,0,1,1.5,9.3,26.986,26.986,0,0,1-1.5,9.109,21.755,21.755,0,0,1-4.319,7.356,19.855,19.855,0,0,1-6.887,4.914,24.87,24.87,0,0,1-18.5,0,19.779,19.779,0,0,1-6.917-4.914,21.757,21.757,0,0,1-4.32-7.356,27.011,27.011,0,0,1-1.5-9.109A27.947,27.947,0,0,1,245.656,42.9Zm8.984,14.774a14.784,14.784,0,0,0,2.1,4.789,10.746,10.746,0,0,0,3.756,3.412,13.014,13.014,0,0,0,11.269,0,10.763,10.763,0,0,0,3.756-3.412,14.806,14.806,0,0,0,2.1-4.789,22.763,22.763,0,0,0,.657-5.478,24.471,24.471,0,0,0-.657-5.7,15.1,15.1,0,0,0-2.1-4.914,10.653,10.653,0,0,0-3.756-3.444,13.014,13.014,0,0,0-11.269,0,10.636,10.636,0,0,0-3.756,3.444,15.074,15.074,0,0,0-2.1,4.914,24.471,24.471,0,0,0-.657,5.7A22.763,22.763,0,0,0,254.64,57.678Z" fill="#231f20"/>
    <path d="M302.9,29.664,321.558,59.65h.126V29.664h9.2v44.7h-9.828L302.465,44.438h-.125V74.362h-9.168a.036.036,0,0,1-.035-.036V29.664Z" fill="#231f20"/>
    <path d="M255.6,18.8a9.614,9.614,0,0,1,1.491-1.48c.694-.55,1.425-1.078,2.173-1.566s1.5-.988,2.243-1.491a12.386,12.386,0,0,0,2.034-1.714A7.786,7.786,0,0,0,265,10.355a7.25,7.25,0,0,0,.557-2.963,6.943,6.943,0,0,0-.638-3A6.743,6.743,0,0,0,263.2,2.137a7.749,7.749,0,0,0-2.486-1.4,9.059,9.059,0,0,0-2.957-.484,8.861,8.861,0,0,0-3.6.7,7.118,7.118,0,0,0-2.622,1.956,8.423,8.423,0,0,0-1.556,2.913h0a10.856,10.856,0,0,0-.45,3.583l.008.268h4.806V9.4a9.115,9.115,0,0,1,.167-1.719,5.252,5.252,0,0,1,.55-1.546,3.125,3.125,0,0,1,.993-1.094,2.619,2.619,0,0,1,1.49-.407,2.972,2.972,0,0,1,2.172.814,3.054,3.054,0,0,1,.839,2.292,3.232,3.232,0,0,1-.417,1.646,5.82,5.82,0,0,1-1.076,1.345,9.968,9.968,0,0,1-1.448,1.114c-.537.34-1.056.685-1.543,1.023-.934.644-1.837,1.288-2.687,1.916a13.4,13.4,0,0,0-2.254,2.1,9.129,9.129,0,0,0-1.534,2.6,9.458,9.458,0,0,0-.567,3.42v.277h16.654V18.8Z" fill="#231f20"/>
    <path d="M268,7.158a11.175,11.175,0,0,1,2.162-3.744A9.9,9.9,0,0,1,273.627.908a12.246,12.246,0,0,1,9.255,0,9.934,9.934,0,0,1,3.446,2.506,11.173,11.173,0,0,1,2.161,3.744,13.951,13.951,0,0,1,.752,4.651,13.481,13.481,0,0,1-.752,4.557,10.873,10.873,0,0,1-2.161,3.681,9.933,9.933,0,0,1-3.446,2.459,12.436,12.436,0,0,1-9.255,0,9.9,9.9,0,0,1-3.461-2.459A10.876,10.876,0,0,1,268,16.366a13.506,13.506,0,0,1-.752-4.557A13.976,13.976,0,0,1,268,7.158Zm4.5,7.391a7.406,7.406,0,0,0,1.049,2.4,5.373,5.373,0,0,0,1.88,1.707,6.508,6.508,0,0,0,5.637,0,5.382,5.382,0,0,0,1.88-1.707,7.43,7.43,0,0,0,1.05-2.4,11.443,11.443,0,0,0,.329-2.74A12.3,12.3,0,0,0,284,8.959a7.567,7.567,0,0,0-1.05-2.459,5.334,5.334,0,0,0-1.88-1.724,6.517,6.517,0,0,0-5.637,0,5.326,5.326,0,0,0-1.88,1.724A7.544,7.544,0,0,0,272.5,8.959a12.247,12.247,0,0,0-.329,2.85A11.393,11.393,0,0,0,272.5,14.549Z" fill="#231f20"/>
    <path d="M297.937,18.8a9.527,9.527,0,0,1,1.491-1.48c.692-.55,1.423-1.077,2.172-1.566s1.5-.988,2.243-1.491a12.344,12.344,0,0,0,2.034-1.714,7.786,7.786,0,0,0,1.462-2.193,7.256,7.256,0,0,0,.557-2.963,6.943,6.943,0,0,0-.638-3,6.729,6.729,0,0,0-1.715-2.253,7.711,7.711,0,0,0-2.486-1.4A9.053,9.053,0,0,0,300.1.256a8.854,8.854,0,0,0-3.6.7,7.121,7.121,0,0,0-2.623,1.956,8.4,8.4,0,0,0-1.555,2.913,10.862,10.862,0,0,0-.451,3.584l.009.268h4.805V9.4a9.107,9.107,0,0,1,.167-1.719,5.262,5.262,0,0,1,.55-1.546,3.144,3.144,0,0,1,.993-1.094,2.619,2.619,0,0,1,1.49-.407,2.972,2.972,0,0,1,2.172.814,3.055,3.055,0,0,1,.84,2.292,3.232,3.232,0,0,1-.417,1.646,5.847,5.847,0,0,1-1.076,1.345,10.016,10.016,0,0,1-1.449,1.114c-.536.34-1.056.685-1.542,1.023-.935.644-1.838,1.288-2.687,1.916a13.368,13.368,0,0,0-2.255,2.1,9.147,9.147,0,0,0-1.534,2.6,9.468,9.468,0,0,0-.567,3.421v.277h16.654V18.8Z" fill="#231f20"/>
    <path d="M310.343,7.158a11.192,11.192,0,0,1,2.162-3.744A9.9,9.9,0,0,1,315.966.908a12.246,12.246,0,0,1,9.255,0,9.934,9.934,0,0,1,3.446,2.506,11.173,11.173,0,0,1,2.161,3.744,13.951,13.951,0,0,1,.752,4.651,13.481,13.481,0,0,1-.752,4.557,10.873,10.873,0,0,1-2.161,3.681,9.933,9.933,0,0,1-3.446,2.459,12.436,12.436,0,0,1-9.255,0,9.9,9.9,0,0,1-3.461-2.459,10.892,10.892,0,0,1-2.162-3.681,13.506,13.506,0,0,1-.752-4.557A13.976,13.976,0,0,1,310.343,7.158Zm4.5,7.391a7.428,7.428,0,0,0,1.049,2.4,5.373,5.373,0,0,0,1.88,1.707,6.51,6.51,0,0,0,5.638,0,5.379,5.379,0,0,0,1.879-1.707,7.408,7.408,0,0,0,1.05-2.4,11.393,11.393,0,0,0,.329-2.74,12.247,12.247,0,0,0-.329-2.85,7.546,7.546,0,0,0-1.05-2.459A5.331,5.331,0,0,0,323.4,4.776a6.519,6.519,0,0,0-5.638,0,5.326,5.326,0,0,0-1.88,1.724,7.565,7.565,0,0,0-1.049,2.459,12.247,12.247,0,0,0-.329,2.85A11.393,11.393,0,0,0,314.838,14.549Z" fill="#231f20"/>
  </g>
</svg>
